<?xml version="1.0" encoding="UTF-8"?>
<svg width="434px" height="71px" viewBox="0 0 434 71" version="1.1" xmlns="http://www.w3.org/2000/svg" xmlns:xlink="http://www.w3.org/1999/xlink">
    <!-- Generator: Sketch 52.5 (67469) - http://www.bohemiancoding.com/sketch -->
    <title>Logo wide</title>
    <desc>Created with Sketch.</desc>
    <g id="Logo-wide" stroke="none" stroke-width="1" fill="none" fill-rule="evenodd">
        <g id="Text" transform="translate(52.000000, 10.000000)" fill="#4A4A4A" font-family="KGMissKindergarten, KG Miss Kindergarten" font-size="40" font-weight="normal">
            <text id="Pebbles-Pre-school">
                <tspan x="0" y="42">Pebbles Pre-school</tspan>
            </text>
        </g>
        <g id="Pebbles" stroke="#264653">
            <path d="M14.1157227,54.9794922 C8.984375,55.5358887 5.09612356,58.8574022 3.52145045,60.6999512 C1.94677734,62.5425001 2.87737356,65.4682617 3.57149928,66.4841309 C4.265625,67.5 5.03515625,68.4208984 7.40551758,69.6083984 C9.77587891,70.7958984 20.1638184,69.9086914 22.355957,69.1369629 C24.5480957,68.3652344 28.3461914,64.7894416 28.795166,63.5639648 C29.2441406,62.3384881 29.5400391,59.5629883 28.2651367,58.4433594 C26.9902344,57.3237305 25.546875,55.3845215 23.527832,54.9794922 C21.5087891,54.5744629 19.2470703,54.4230957 14.1157227,54.9794922 Z" id="Red" fill="#EA5B3A"></path>
            <path d="M11.6572266,48.2333984 C12.1108398,47.3288574 12.9472656,45.3064426 16.7775879,43.8010484 C20.6079102,42.2956543 28.4626465,42.2956543 31.4108887,43.2163086 C34.3591309,44.1369629 39.7021484,48.3747559 40.8999023,49.8491211 C42.0976562,51.3234863 41.4030762,53.0031738 40.8999023,54.6049805 C40.3967285,56.2067871 36.4978027,58.4433594 34.3986816,58.4433594 C32.2995605,58.4433594 31.2766995,57.5339355 29.5784573,56.7617188 C27.8802151,55.989502 28.9396444,56.0208876 24.0490723,55.057373 C19.1585001,54.0938585 20.0289609,54.9799741 16.7775879,54.079834 C13.5262149,53.1796939 12.1108398,51.5685361 11.6572266,50.9008789 C11.2036133,50.2332218 11.2036133,49.1379395 11.6572266,48.2333984 Z" id="Green" fill="#89D085"></path>
            <path d="M16.064209,30.3726415 C11.6123047,31.2638376 7.03027344,35.4987793 4.90429688,37.1499023 C2.77832031,38.8010254 3.46020508,41.309082 4.58105469,42.2133789 C5.7019043,43.1176758 7.05102539,43.8010254 9.15795898,43.8010254 C11.2648926,43.8010254 16.7158203,43.8198242 20.6398926,42.7836914 C24.5639648,41.7475586 27.1506692,40.2268865 28.7055664,38.8010254 C30.2604636,37.3751643 29.4016113,35.7893066 28.7055664,34.9848633 C28.0095215,34.1804199 25.9406738,32.2702637 24.6398926,31.6433105 C23.3391113,31.0163574 20.5161133,29.4814453 16.064209,30.3726415 Z" id="Yellow" fill="#FDE74C"></path>
            <path d="M10.354126,16.3553936 C7.86401367,17.2892783 7.56761943,18.9051827 8.79450316,22.6643247 C10.0213869,26.4234668 13.5919189,28.8093262 16.5883789,29.5733643 C19.5848389,30.3374023 28.2542725,30.6759033 31.4967041,29.2011018 C34.7391357,27.7263004 33.1727295,21.3839111 31.6928711,19.5933838 C30.2130127,17.8028564 28.8084717,16.9299316 24.5467529,15.9293213 C20.2850342,14.9287109 12.8442383,15.4215088 10.354126,16.3553936 Z" id="Blue" fill="#4CAAD8"></path>
            <path d="M16.1933594,1.55615234 C14.1984863,1.03857422 11.7451172,0.459472656 6.58642578,1.55615234 C1.42773438,2.65283203 0.649169922,5.71606445 0.649169922,5.71606445 C0.649169922,5.71606445 -0.0583496094,8.39624023 0.649169922,10.7756348 C1.35668945,13.1550293 2.41381836,14.5998535 3.86499023,15.5437012 C5.31616211,16.4875488 7.55737305,16.3481445 8.65429687,16.3481445 C9.43892092,16.3481445 15.8193359,15.5881348 18.2575684,15.0361328 C20.6958008,14.4841309 23.527832,12.1689453 23.527832,9.12524414 C23.527832,6.08154297 22.3730469,5.23583984 20.8200684,3.875 C19.2670898,2.51416016 18.1882324,2.07373047 16.1933594,1.55615234 Z" id="Orange" fill="#FFBA49"></path>
        </g>
    </g>
</svg>